<?xml version="1.0" standalone="no"?>
<!DOCTYPE svg PUBLIC "-//W3C//DTD SVG 20010904//EN"
 "http://www.w3.org/TR/2001/REC-SVG-20010904/DTD/svg10.dtd">
<svg version="1.0" xmlns="http://www.w3.org/2000/svg"
 width="200.000000pt" height="200.000000pt" viewBox="0 0 200.000000 200.000000"
 preserveAspectRatio="xMidYMid meet">
<metadata>
Created by potrace 1.11, written by Peter Selinger 2001-2013
</metadata>
<g transform="translate(0.000000,200.000000) scale(0.100000,-0.100000)"
fill="#000000" stroke="none">
<path d="M873 1984 c-158 -26 -270 -77 -418 -189 -41 -30 -76 -55 -79 -55 -10
0 -57 -41 -127 -110 -110 -108 -166 -204 -215 -366 -24 -78 -27 -106 -27 -224
1 -118 4 -146 27 -220 15 -47 38 -121 51 -165 102 -343 341 -566 668 -626 89
-16 398 -18 482 -3 167 29 328 111 446 226 110 107 181 228 229 389 18 57 43
140 57 184 33 106 37 290 9 405 -53 210 -177 391 -348 505 -23 16 -70 50 -103
76 -84 65 -158 105 -261 139 -49 17 -90 30 -92 30 -1 -1 -23 2 -48 6 -78 11
-176 11 -251 -2z"/>
</g>
</svg>
